<?xml version="1.0" encoding="UTF-8"?>
<svg width="66px" height="53px" viewBox="0 0 66 53" version="1.1" xmlns="http://www.w3.org/2000/svg" xmlns:xlink="http://www.w3.org/1999/xlink">
    <!-- Generator: Sketch 64 (93537) - https://sketch.com -->
    <title>Group 3</title>
    <desc>Created with Sketch.</desc>
    <g id="Web" stroke="none" stroke-width="1" fill="none" fill-rule="evenodd">
        <g id="UI" transform="translate(-1370.000000, -293.000000)">
            <g id="Group-3" transform="translate(1370.187400, 293.000000)">
                <rect id="Rectangle" fill="#56BDE2" x="28.5125996" y="7" width="36.3999994" height="39.1999993"></rect>
                <path d="M5.38174203,40.2 L6.76135719,31.947167 L11.2730716,31.947167 C17.1519723,31.947167 21.1292412,28.4670567 21.9619819,23.3711809 C22.7947226,18.300163 20.0479212,14.7454789 14.2684523,14.7454789 L4.22584824,14.7454789 L-9.09494702e-13,40.2 L5.38174203,40.2 Z M11.1114951,27.634316 L7.48223718,27.634316 L8.89913924,19.1453326 L12.5283971,19.1453326 C15.6356385,19.1453326 16.8288192,20.823243 16.4186633,23.3711809 C16.0085075,25.8942608 14.2311654,27.634316 11.1114951,27.634316 Z" id="P" fill="#E25656" fill-rule="nonzero"></path>
                <path d="M44.0432434,40.2 C51.7989178,40.2 57.143373,35.5639959 58.4359854,27.7461767 C59.7783136,19.6797781 55.7761868,14.7454789 48.0950861,14.7454789 L39.1213731,14.7454789 L34.8955249,40.2 L44.0432434,40.2 Z M44.3539675,35.5888539 L41.0478627,35.5888539 L43.7325193,19.356625 L47.2872034,19.356625 C52.0599261,19.356625 54.0982764,21.6311257 53.178533,27.1620153 C52.2215027,32.9663422 49.1515482,35.5888539 44.3539675,35.5888539 Z" id="D" fill="#FFFFFF" fill-rule="nonzero"></path>
                <path d="M1.95014768,15.3999999 L5.19723473,15.5986529 C5.11443553,16.8843952 5.20338124,18.175174 5.39756501,19.2128731 C5.78261082,20.258247 6.32169307,21.2434388 6.9318279,22.0559011 C8.09238416,23.3967478 9.57196887,24.4403943 11.2414724,25.0957714 L11.1166001,25.0439999 L44.4727034,25.046263 C45.9740057,24.429436 47.3142813,23.4979658 48.3544148,22.3737899 L48.5955353,22.1034668 C49.2722914,21.2120237 49.8105954,20.2282541 50.132445,19.3942964 C50.3993049,18.1427032 50.498053,16.8626003 50.4262056,15.5861851 L50.4262056,15.5861851 L53.6747973,15.4124677 C53.7620957,16.9633808 53.6421115,18.5187747 53.2572026,20.249972 C52.7672468,21.5877453 52.0777338,22.8478547 51.1518988,24.0628066 C50.3157472,25.0388768 49.349554,25.8949806 48.2825458,26.6103153 C49.3635204,27.3018787 50.3700492,28.1401441 51.2947469,29.125518 C52.1928839,30.2744255 52.8758786,31.5688518 53.3526275,33.1041651 C53.6706827,34.6489184 53.7786729,36.2277656 53.6738138,37.7999995 L53.6738138,37.7999995 L50.4271891,37.594292 C50.5135219,36.299838 50.4246112,34.999939 50.203088,33.8830678 C49.8794451,32.8593931 49.3729349,31.8994439 48.8035721,31.159902 C47.5677384,29.8504393 46.0469051,28.8271505 44.3525709,28.1650574 L44.3956001,28.1829999 L11.2266052,28.1827192 C9.67090442,28.7965771 8.26374664,29.7153909 7.16792054,30.7924013 L6.91835213,31.0460873 C6.25258766,31.8995981 5.74564978,32.8603578 5.46160636,33.7273165 C5.20031149,34.9997596 5.11136994,36.3001102 5.19705721,37.5950998 L5.19705721,37.5950998 L1.95032521,37.7991916 C1.84632869,36.2274948 1.95427485,34.6492915 2.31240736,32.9476174 C2.74992984,31.5688881 3.43227876,30.2756855 4.42555591,29.0136502 C5.28647821,28.1004584 6.25705575,27.2972869 7.31362929,26.6200547 C6.23914287,25.903682 5.25499331,25.0340968 4.37903861,24.0191159 C3.51556252,22.8774226 2.82715,21.6193244 2.27116997,20.0586702 C1.95760474,18.5258858 1.84969405,16.9598876 1.95014768,15.3999999 L1.95014768,15.3999999 Z" id="beam" fill="#131415" fill-rule="nonzero" transform="translate(27.812600, 26.600000) rotate(90.000000) translate(-27.812600, -26.600000) "></path>
            </g>
        </g>
    </g>
</svg>