<?xml version="1.0" encoding="UTF-8"?>
<svg width="157px" height="38px" viewBox="0 0 157 38" version="1.1" xmlns="http://www.w3.org/2000/svg" xmlns:xlink="http://www.w3.org/1999/xlink">
    <!-- Generator: Sketch 64 (93537) - https://sketch.com -->
    <title>Group 2</title>
    <desc>Created with Sketch.</desc>
    <g id="Web" stroke="none" stroke-width="1" fill="none" fill-rule="evenodd">
        <g id="UI" transform="translate(-1079.000000, -301.000000)">
            <g id="Group-2" transform="translate(1079.662812, 301.000000)">
                <rect id="Rectangle" fill="#56BDE2" x="76.837188" y="6" width="70" height="27"></rect>
                <path d="M4.30539362,29 L5.40908575,22.3977336 L9.01845731,22.3977336 C13.7215778,22.3977336 16.903393,19.6136453 17.5695855,15.5369447 C18.2357781,11.4801303 16.038337,8.63638306 11.4147618,8.63638306 L3.38067859,8.63638306 L0,29 L4.30539362,29 Z M8.88919607,18.9474528 L5.98578975,18.9474528 L7.11931139,12.1562661 L10.0227177,12.1562661 C12.5085108,12.1562661 13.4630553,13.4985943 13.1349307,15.5369447 C12.806806,17.5554086 11.3849323,18.9474528 8.88919607,18.9474528 Z M21.8107233,29 L23.232597,20.3593832 C23.5706648,18.4801237 25.1516292,17.1875113 27.0010593,17.1875113 C27.6075928,17.1875113 28.3931034,17.286943 28.7610008,17.4162042 L29.3973638,13.6477419 C29.0294664,13.5582534 28.5223646,13.5085375 28.0948082,13.5085375 C26.3845826,13.5085375 24.8135614,14.5028547 23.9385622,16.3920575 L23.7794714,16.3920575 L24.2269142,13.7272873 L20.120384,13.7272873 L17.5749319,29 L21.8107233,29 Z M33.6683248,11.7386528 C34.9311077,11.7386528 36.0646293,10.7642219 36.2038337,9.5909276 C36.333095,8.40769009 35.4183231,7.45314555 34.1555402,7.45314555 C32.9027005,7.45314555 31.7592357,8.40769009 31.6200313,9.5909276 C31.4708837,10.7642219 32.4055419,11.7386528 33.6683248,11.7386528 Z M32.8132119,29 L35.3586641,13.7272873 L31.1228726,13.7272873 L28.5774205,29 L32.8132119,29 Z M39.9875756,29 L41.5387104,19.8323951 C41.7872898,18.1420558 43.0600158,17.0184773 44.4620031,17.0184773 C45.8639904,17.0184773 46.6395579,17.9730219 46.4108649,19.4744409 L44.800071,29 L48.9066011,29 L50.4875655,19.6733043 C50.7262017,18.0823968 51.8100075,17.0184773 53.3511992,17.0184773 C54.7034706,17.0184773 55.5685266,17.863647 55.3100041,19.5639295 L53.7190966,29 L57.954888,29 L59.6651136,18.728703 C60.2219313,15.4176266 58.5415351,13.5284238 55.7176742,13.5284238 C53.4705172,13.5284238 51.5415418,14.6619455 50.6367131,16.421887 L50.4776224,16.421887 C50.2688158,14.6520023 48.8867148,13.5284238 46.818535,13.5284238 C44.7404119,13.5284238 43.0003568,14.6221728 42.0656986,16.421887 L41.8966647,16.421887 L42.3341642,13.7272873 L38.3071794,13.7272873 L35.7617273,29 L39.9875756,29 Z M65.1193255,29.288352 C67.3764256,29.288352 69.0071059,28.3039779 69.9815368,26.8821043 L70.1008548,26.8821043 L69.7429006,29 L73.7599423,29 L75.4801111,18.6988735 C76.0767014,15.0596724 73.2428973,13.5284238 69.8622187,13.5284238 C66.1931881,13.5284238 63.4787021,15.2784222 62.4446121,18.0625104 L66.302563,18.3806919 C66.7599489,17.3664884 67.8437547,16.6207504 69.3551169,16.6207504 C70.7869337,16.6207504 71.4630695,17.346602 71.264206,18.5994417 L71.264206,18.6591008 C71.0852289,19.6335317 70.0014231,19.7627929 67.3267098,20.0312586 C64.2542695,20.3096674 61.3806927,21.3338141 60.8039887,24.7343791 C60.3068301,27.7471603 62.2159192,29.288352 65.1193255,29.288352 Z M66.819608,26.3650593 C65.4971661,26.3650593 64.6917691,25.7485826 64.8707462,24.5951747 C65.0596665,23.401994 66.1633586,22.8153468 67.6946071,22.6065402 C68.6193222,22.4573926 70.1804002,22.2585292 70.7272747,21.9204613 L70.4687522,23.5411984 C70.1903434,25.1420491 68.6789812,26.3650593 66.819608,26.3650593 Z" id="Prima" fill="#E25656" fill-rule="nonzero"></path>
                <path d="M86.215726,29 C92.4202655,29 96.6958296,25.2911967 97.7299195,19.0369413 C98.8037822,12.5838225 95.6020807,8.63638306 89.4572002,8.63638306 L82.2782297,8.63638306 L78.8975511,29 L86.215726,29 Z M86.4643053,25.3110831 L83.8194214,25.3110831 L85.9671467,12.3253 L88.810894,12.3253 C92.6290721,12.3253 94.2597524,14.1449005 93.5239576,18.5696122 C92.7583334,23.2130737 90.3023698,25.3110831 86.4643053,25.3110831 Z M105.64009,29.2982952 C110.253722,29.2982952 113.624457,26.1562527 114.390082,21.4829617 C115.165649,16.7301253 112.799174,13.5284238 108.145769,13.5284238 C103.522194,13.5284238 100.151459,16.6605231 99.3957778,21.3537005 C98.6102672,26.0965937 100.976742,29.2982952 105.64009,29.2982952 Z M106.067646,26.0170483 C103.97958,26.0170483 103.233842,24.0880729 103.661399,21.4630754 C104.098898,18.7684757 105.570488,16.7599549 107.718213,16.7599549 C109.806279,16.7599549 110.542074,18.6988735 110.124461,21.3338141 C109.677018,24.0284138 108.205429,26.0170483 106.067646,26.0170483 Z M122.300249,29.2982952 C126.367007,29.2982952 129.300243,26.9119338 130.105639,23.401994 L126.108484,23.401994 C125.581496,25.0227311 124.368429,25.9474461 122.89684,25.9474461 C120.918148,25.9474461 119.913888,24.2869363 120.401103,21.3636436 C120.858489,18.4801237 122.439454,16.8295571 124.428088,16.8295571 C125.959337,16.8295571 126.78462,17.863647 126.764734,19.3750092 L130.751946,19.3750092 C131.169559,15.845183 128.892572,13.5284238 124.90536,13.5284238 C120.271842,13.5284238 116.851391,16.7400685 116.09571,21.4233027 C115.310199,26.0667642 117.597129,29.2982952 122.300249,29.2982952 Z M137.807,29.2982952 C141.684837,29.2982952 144.747334,27.3892061 145.244493,24.4559702 C145.61239,22.1590974 144.319778,20.7571101 141.456144,20.1505766 L138.771487,19.593759 C137.409273,19.2954638 137.041375,18.8778506 137.160693,18.2315444 C137.309841,17.2372271 138.542794,16.5312619 139.944782,16.5312619 C141.336826,16.5312619 142.022905,17.3167725 142.082564,18.3210329 L145.930571,18.0823968 C146.030003,15.268479 143.971767,13.5284238 140.014384,13.5284238 C136.216092,13.5284238 133.441947,15.2287063 132.964675,18.0823968 C132.566948,20.458815 133.829731,22.0298362 136.723194,22.6164834 L139.268646,23.1434715 C140.571202,23.4218803 141.018644,23.809664 140.919213,24.5056861 C140.770065,25.5000033 139.537112,26.2755708 137.96609,26.2457413 C136.55416,26.2357981 135.718933,25.5994351 135.649331,24.3565385 L131.512972,24.5752883 C131.433426,27.4687515 133.660697,29.2982952 137.807,29.2982952 Z" id="Docs" fill="#FFFFFF" fill-rule="nonzero"></path>
                <path d="M129.364008,11 L131.683356,11.141895 C131.624213,12.0602824 131.687746,12.9822673 131.826449,13.723481 C132.101481,14.4701766 132.48654,15.1738851 132.922351,15.7542152 C133.75132,16.7119629 134.808166,17.4574247 136.000668,17.9255512 L135.911188,17.888 L159.738501,17.8896792 C160.796222,17.4548959 161.741987,16.8014574 162.480418,16.0129646 L162.682142,15.7881907 C163.165539,15.1514457 163.550042,14.4487531 163.779935,13.853069 C163.970549,12.9590739 164.041083,12.0447146 163.989764,11.1329894 L163.989764,11.1329894 L166.310187,11.0089056 C166.372543,12.1167007 166.28684,13.2276963 166.011905,14.4642659 C165.661936,15.4198183 165.169427,16.3198964 164.508116,17.1877192 C163.91093,17.8848359 163.220878,18.496281 162.458829,19.0072004 C163.230147,19.5008792 163.949397,20.0998311 164.610151,20.8039417 C165.251677,21.6245899 165.73953,22.5491802 166.080065,23.6458325 C166.307248,24.7492277 166.384383,25.8769758 166.309484,27 L166.309484,27 L163.990466,26.8530661 C164.052133,25.928456 163.988625,24.9999568 163.830394,24.2021916 C163.599221,23.4709954 163.237428,22.7853173 162.83074,22.2570732 C161.948002,21.3217426 160.861692,20.5908221 159.651453,20.1178984 L159.685188,20.131 L135.990367,20.1303886 C134.902559,20.5595739 133.916416,21.1975068 133.141016,21.9458504 L132.912725,22.1757769 C132.437179,22.7854275 132.075081,23.4716845 131.872193,24.0909407 C131.685553,24.9998286 131.622024,25.9286505 131.683229,26.8536431 L131.683229,26.8536431 L129.364134,26.999423 C129.289851,25.8767823 129.366956,24.7494943 129.622765,23.5340127 C129.935281,22.5492061 130.422673,21.6254899 131.132156,20.7240361 C131.747467,20.0713678 132.441196,19.497379 133.196414,19.0134609 C132.427994,18.5029995 131.724798,17.8817134 131.09893,17.1565116 C130.482161,16.3410163 129.990438,15.4423747 129.593309,14.3276217 C129.369334,13.2327757 129.292255,12.1142055 129.364008,11 L129.364008,11 Z" id="beam" fill="#131415" fill-rule="nonzero" transform="translate(147.837188, 19.000000) rotate(90.000000) translate(-147.837188, -19.000000) "></path>
            </g>
        </g>
    </g>
</svg>