<?xml version="1.0" encoding="UTF-8"?>
<svg width="67px" height="53px" viewBox="0 0 67 53" version="1.1" xmlns="http://www.w3.org/2000/svg" xmlns:xlink="http://www.w3.org/1999/xlink">
    <!-- Generator: Sketch 64 (93537) - https://sketch.com -->
    <title>Group</title>
    <desc>Created with Sketch.</desc>
    <g id="Web" stroke="none" stroke-width="1" fill="none" fill-rule="evenodd">
        <g id="UI" transform="translate(-1369.000000, -293.000000)">
            <g id="Group" transform="translate(1369.000000, 293.000000)">
                <rect id="Rectangle" fill="#56BDE2" x="29.6999994" y="6.99999988" width="36.3999994" height="39.1999993"></rect>
                <text id="P" font-family="Inter-BoldItalic, Inter" font-size="35" font-style="italic" font-weight="bold" letter-spacing="-0.577500015" fill="#E25656">
                    <tspan x="0.565951498" y="40.1999999">P</tspan>
                </text>
                <text id="D" font-family="Inter-BoldItalic, Inter" font-size="35" font-style="italic" font-weight="bold" letter-spacing="-0.577500015" fill="#FFFFFF">
                    <tspan x="35.4614764" y="40.1999999">D</tspan>
                </text>
                <path d="M3.13754745,15.3999997 L6.3846345,15.5986528 C6.30183529,16.884395 6.39078101,18.1751739 6.58496478,19.212873 C6.97001058,20.2582469 7.50909284,21.2434387 8.11922766,22.0559009 C9.27978393,23.3967476 10.7593686,24.4403942 12.4288722,25.0957712 L12.3039998,25.0439997 L45.6601032,25.0462629 C47.1614054,24.4294359 48.5016811,23.4979657 49.5418146,22.3737898 L49.7829351,22.1034667 C50.4596912,21.2120236 50.9979952,20.228254 51.3198448,19.3942963 C51.5867046,18.1427031 51.6854527,16.8626002 51.6136053,15.5861849 L51.6136053,15.5861849 L54.8621971,15.4124676 C54.9494955,16.9633807 54.8295113,18.5187746 54.4446024,20.2499719 C53.9546465,21.5877452 53.2651335,22.8478546 52.3392986,24.0628065 C51.5031469,25.0388767 50.5369538,25.8949804 49.4699456,26.6103151 C50.5509202,27.3018786 51.557449,28.140144 52.4821467,29.1255178 C53.3802837,30.2744254 54.0632783,31.5688517 54.5400272,33.104165 C54.8580824,34.6489183 54.9660726,36.2277655 54.8612135,37.7999994 L54.8612135,37.7999994 L51.6145889,37.5942919 C51.7009216,36.2998378 51.612011,34.9999389 51.3904878,33.8830677 C51.0668449,32.859393 50.5603347,31.8994437 49.9909719,31.1599019 C48.7551382,29.8504392 47.2343049,28.8271504 45.5399707,28.1650573 L45.5829998,28.1829997 L12.4140049,28.1827191 C10.8583042,28.796577 9.45114641,29.7153908 8.3553203,30.7924011 L8.1057519,31.0460872 C7.43998743,31.899598 6.93304954,32.8603577 6.64900612,33.7273164 C6.38771126,34.9997595 6.2987697,36.3001101 6.38445697,37.5950997 L6.38445697,37.5950997 L3.13772497,37.7991915 C3.03372846,36.2274947 3.14167462,34.6492914 3.49980713,32.9476173 C3.93732961,31.5688879 4.61967853,30.2756854 5.61295568,29.01365 C6.47387798,28.1004583 7.44445552,27.2972868 8.50102906,26.6200546 C7.42654264,25.9036819 6.44239308,25.0340967 5.56643838,24.0191158 C4.70296228,22.8774224 4.01454976,21.6193242 3.45856973,20.0586701 C3.14500451,18.5258857 3.03709382,16.9598875 3.13754745,15.3999997 L3.13754745,15.3999997 Z" id="beam" fill="#131415" fill-rule="nonzero" transform="translate(28.999999, 26.600000) rotate(90.000000) translate(-28.999999, -26.600000) "></path>
            </g>
        </g>
    </g>
</svg>