<?xml version="1.0" encoding="UTF-8"?>
<svg width="157px" height="38px" viewBox="0 0 157 38" version="1.1" xmlns="http://www.w3.org/2000/svg" xmlns:xlink="http://www.w3.org/1999/xlink">
    <!-- Generator: Sketch 64 (93537) - https://sketch.com -->
    <title>Group 3</title>
    <desc>Created with Sketch.</desc>
    <g id="Web" stroke="none" stroke-width="1" fill="none" fill-rule="evenodd">
        <g id="Login-interactive" transform="translate(-605.000000, -78.000000)">
            <g id="Group-3" transform="translate(605.000000, 78.000000)">
                <rect id="Rectangle" fill="#56BDE2" x="77.5" y="6" width="70" height="27"></rect>
                <text id="Prima" font-family="Inter-BoldItalic, Inter" font-size="28" font-style="italic" font-weight="bold" letter-spacing="-0.462" fill="#E25656">
                    <tspan x="0.165653409" y="29">Prima</tspan>
                </text>
                <text id="Docs" font-family="Inter-BoldItalic, Inter" font-size="28" font-style="italic" font-weight="bold" letter-spacing="-0.462" fill="#FFFFFF">
                    <tspan x="79.0632045" y="29">Docs</tspan>
                </text>
                <path d="M130.02682,11 L132.346168,11.141895 C132.287025,12.0602824 132.350558,12.9822673 132.489261,13.723481 C132.764293,14.4701766 133.149352,15.1738851 133.585163,15.7542152 C134.414132,16.7119629 135.470978,17.4574247 136.66348,17.9255512 L136.574,17.888 L160.401313,17.8896792 C161.459034,17.4548959 162.404799,16.8014574 163.14323,16.0129646 L163.344954,15.7881907 C163.828352,15.1514457 164.212854,14.4487531 164.442747,13.853069 C164.633361,12.9590739 164.703896,12.0447146 164.652576,11.1329894 L164.652576,11.1329894 L166.972999,11.0089056 C167.035355,12.1167007 166.949652,13.2276963 166.674717,14.4642659 C166.324748,15.4198183 165.832239,16.3198964 165.170928,17.1877192 C164.573742,17.8848359 163.88369,18.496281 163.121641,19.0072004 C163.892959,19.5008792 164.612209,20.0998311 165.272963,20.8039417 C165.914489,21.6245899 166.402342,22.5491802 166.742877,23.6458325 C166.97006,24.7492277 167.047195,25.8769758 166.972296,27 L166.972296,27 L164.653278,26.8530661 C164.714945,25.928456 164.651437,24.9999568 164.493206,24.2021916 C164.262033,23.4709954 163.90024,22.7853173 163.493552,22.2570732 C162.610814,21.3217426 161.524504,20.5908221 160.314265,20.1178984 L160.348,20.131 L136.653179,20.1303886 C135.565371,20.5595739 134.579228,21.1975068 133.803828,21.9458504 L133.575537,22.1757769 C133.099991,22.7854275 132.737893,23.4716845 132.535005,24.0909407 C132.348365,24.9998286 132.284836,25.9286505 132.346041,26.8536431 L132.346041,26.8536431 L130.026947,26.999423 C129.952663,25.8767823 130.029768,24.7494943 130.285577,23.5340127 C130.598093,22.5492061 131.085485,21.6254899 131.794968,20.7240361 C132.410279,20.0713678 133.104008,19.497379 133.859227,19.0134609 C133.090806,18.5029995 132.38761,17.8817134 131.761742,17.1565116 C131.144973,16.3410163 130.65325,15.4423747 130.256121,14.3276217 C130.032146,13.2327757 129.955067,12.1142055 130.02682,11 L130.02682,11 Z" id="beam" fill="#131415" fill-rule="nonzero" transform="translate(148.500000, 19.000000) rotate(90.000000) translate(-148.500000, -19.000000) "></path>
            </g>
        </g>
    </g>
</svg>